<?xml version="1.0" encoding="utf-8"?>
<!-- Generator: Adobe Illustrator 18.0.0, SVG Export Plug-In . SVG Version: 6.00 Build 0)  -->
<!DOCTYPE svg PUBLIC "-//W3C//DTD SVG 1.1//EN" "http://www.w3.org/Graphics/SVG/1.1/DTD/svg11.dtd">
<svg version="1.1" id="图层_1" xmlns="http://www.w3.org/2000/svg" xmlns:xlink="http://www.w3.org/1999/xlink" x="0px" y="0px"
	 viewBox="0 0 595.3 841.9" enable-background="new 0 0 595.3 841.9" xml:space="preserve">
<g display="none">
	<path display="inline" fill="#FFFFFF" d="M29.8,344.7c-7.4,0-11.2-7.4-7.4-11.2c13-22.3,48.4-98.6,61.4-150.7
		c0,0,11.2-24.2,44.6-31.6c7.4,0,13,7.4,13,13c-1.9,14.9-9.3,35.3-14.9,55.8c-7.4,0,0,3.7,3.7,3.7h158.1h3.7
		c3.7,0,16.7,7.4,16.7,27.9v16.7h-96.7c-3.7,0-7.4,3.7-7.4,7.4v124.6c0,3.7,3.7,7.4,7.4,7.4h93c0,0,13,0,13,31.6v13H210.2
		c-3.7,0-7.4,3.7-7.4,7.4c0,13,3.7,48.4-7.4,61.4l7.4-11.2c3.7-3.7,13-7.4,16.7-7.4l68.8,83.7l3.7,3.7v52.1c0,7.4-11.2,11.2-13,3.7
		l-83.7-100.5h-3.7c0,0-13,72.5-80,128.4c0,0-13,16.7-76.3,16.7c-7.4,0-11.2-7.4-3.7-13C67,646,152.5,556.7,152.5,452.6v-7.4H39.1
		c-3.7,0-7.4-3.7-7.4-11.2c0-11.2,7.4-31.6,24.2-37.2h3.7h93c3.7,0,7.4-3.7,7.4-7.4V268.4c0-3.7-3.7-7.4-7.4-7.4h-29.8
		c-3.7,0-7.4,3.7-7.4,7.4c-3.7,11.2-11.2,37.2-31.6,52.1C74.4,331.7,55.8,344.7,29.8,344.7z"/>
	<path display="inline" fill="#FFFFFF" d="M340.4,631.2v-413h234.4v411.1h-96.7l-76.3,59.5l-13-55.8h-48.4V631.2z M414.8,586.5
		l11.2,40.9l44.6-40.9h55.8V268.4H388.8v321.8L414.8,586.5z"/>
</g>
<polygon display="none" fill="#FFFFFF" points="26,590.2 78.1,590.2 78.1,272.1 26,272.1 26,201.4 230.7,201.4 297.6,471.2 
	364.6,201.4 569.2,201.4 569.2,268.4 515.3,268.4 515.3,590.2 569.2,590.2 569.2,640.5 379.5,640.5 379.5,590.2 429.7,590.2 
	429.7,272.1 413,272.1 314.4,640.5 260.4,640.5 158.1,268.4 145.1,268.4 145.1,590.2 189.7,590.2 189.7,640.5 26,640.5 "/>
<g>
	<path fill="#424242" d="M273.5,279.6c9.3,14.9,14.9,31.6,14.9,53.9s-5.6,37.2-14.9,50.2c-5.6,5.6-14.9,13-26,18.6
		c18.6,5.6,31.6,14.9,40.9,31.6c9.3,13,13,31.6,13,50.2c0,22.3-5.6,37.2-14.9,57.7c-5.6,9.3-14.9,18.6-26,27.9
		c-13,9.3-26,14.9-40.9,18.6s-31.6,5.6-50.2,5.6H11.2V240.5h171.1C227,240.5,254.9,253.5,273.5,279.6z M83.7,301.9V380h85.6
		c14.9,0,27.9-3.7,37.2-9.3c9.3-5.6,14.9-14.9,14.9-31.6c0-16.7-5.6-27.9-18.6-31.6c-9.3-3.7-26-5.6-40.9-5.6H83.7z M83.7,437.7
		v94.9h85.6c14.9,0,27.9-3.7,35.3-5.6c14.9-5.6,22.3-22.3,22.3-44.6c0-18.6-5.6-31.6-22.3-37.2c-9.3-3.7-18.6-5.6-35.3-5.6
		L83.7,437.7L83.7,437.7z"/>
	<path fill="#424242" d="M513.4,339.1c18.6,9.3,31.6,22.3,44.6,37.2c9.3,14.9,18.6,35.3,22.3,53.9c3.7,13,3.7,27.9,3.7,50.2H394.4
		c0,26,9.3,44.6,27.9,53.9c9.3,5.6,22.3,9.3,37.2,9.3s27.9-3.7,37.2-13c5.6-3.7,9.3-9.3,13-18.6h68.8c-3.7,14.9-9.3,31.6-26,46.5
		c-22.3,26-57.7,37.2-98.6,37.2c-35.3,0-67-9.3-91.2-31.6c-26-22.3-40.9-57.7-40.9-104.2c0-44.6,13-78.1,35.3-104.2
		c26-26,53.9-35.3,91.2-35.3C476.2,326.1,494.8,329.8,513.4,339.1z M413,396.8c-9.3,9.3-14.9,22.3-18.6,40.9h117.2
		c0-18.6-5.6-31.6-18.6-40.9c-9.3-9.3-26-13-40.9-13C437.2,383.7,422.3,385.6,413,396.8z"/>
	<rect x="375.8" y="257.2" fill="#424242" width="150.7" height="44.6"/>
</g>
</svg>
