<?xml version="1.0" encoding="utf-8"?>
<!-- Generator: Adobe Illustrator 18.0.0, SVG Export Plug-In . SVG Version: 6.00 Build 0)  -->
<!DOCTYPE svg PUBLIC "-//W3C//DTD SVG 1.1//EN" "http://www.w3.org/Graphics/SVG/1.1/DTD/svg11.dtd">
<svg version="1.1" id="Layer_1" xmlns="http://www.w3.org/2000/svg" xmlns:xlink="http://www.w3.org/1999/xlink" x="0px" y="0px"
	 viewBox="0 0 128 64" enable-background="new 0 0 128 64" xml:space="preserve">
<path display="none" fill="#242E30" d="M24,11c-0.6,0.3-1.2,0.4-1.9,0.5c0.7-0.4,1.2-1,1.4-1.8c-0.6,0.4-1.3,0.6-2.1,0.8
	c-0.6-0.6-1.5-1-2.4-1c-1.8,0-3.3,1.5-3.3,3.3c0,0.3,0,0.5,0.1,0.7c-2.7-0.1-5.1-1.4-6.8-3.4c-0.3,0.5-0.4,1-0.4,1.7
	c0,1.1,0.6,2.1,1.5,2.7c-0.5,0-1-0.2-1.5-0.4l0,0c0,1.6,1.1,2.9,2.6,3.2c-0.4,0.3-1,0.3-1.5,0c0.4,1.3,1.6,2.3,3.1,2.3
	c-1.1,0.9-2.5,1.4-4.1,1.4c-0.3,0-0.5,0-0.8,0c1.5,0.9,3.2,1.5,5,1.5c6,0,9.3-5,9.3-9.3c0-0.1,0-0.3,0-0.4C23,12.3,23.6,11.7,24,11z
	"/>
<polygon fill="#242E30" points="72.1,20.8 73.6,20.8 73.6,11.4 72.1,11.4 72.1,9.3 78.1,9.3 80.1,17.3 82.1,9.3 88.1,9.3 88.1,11.3 
	86.5,11.3 86.5,20.8 88.1,20.8 88.1,22.3 82.5,22.3 82.5,20.8 84,20.8 84,11.4 83.5,11.4 80.6,22.3 79,22.3 76,11.3 75.6,11.3 
	75.6,20.8 76.9,20.8 76.9,22.3 72.1,22.3 "/>
<polygon fill="#FFFFFF" points="72.1,53 73.6,53 73.6,43.6 72.1,43.6 72.1,41.5 78.1,41.5 80.1,49.5 82.1,41.5 88.1,41.5 88.1,43.5 
	86.5,43.5 86.5,53 88.1,53 88.1,54.5 82.5,54.5 82.5,53 84,53 84,43.6 83.5,43.6 80.6,54.5 79,54.5 76,43.5 75.6,43.5 75.6,53 
	76.9,53 76.9,54.5 72.1,54.5 "/>
<path display="none" fill="#242E30" d="M78,16v8h3v-8h2l1-3h-3c0,0,0-0.5,0-1.3c0-0.3,0.2-0.7,0.7-0.7c1,0,2.9,0,2.3,0V8
	c0,0-1.6,0-3.3,0C79,8,78,9.3,78,10.8s0,2.3,0,2.3h-2v3h2V16z"/>
<path display="none" fill="#242E30" d="M112,24c-4.4,0-8-3.6-8-8s3.6-8,8-8s8,3.6,8,8S116.4,24,112,24z M118.7,17.1
	c-0.2-0.1-2.1-0.6-4.3-0.3c0.9,2.5,1.1,3.7,1.3,4.9C117.4,20.6,118.4,19,118.7,17.1z M114.7,22.3c-0.2-1.2-0.5-2.7-1.5-5.2l0,0
	c-3.9,1.3-5.2,4-5.4,4.3C109.4,22.7,112,23.2,114.7,22.3z M106.9,20.6c1.6-3.1,5.8-4.6,5.9-4.6c-0.2-0.4-0.4-0.8-0.6-1.2
	c-3.4,1-6.7,1-7,1C105.1,17.7,105.8,19.4,106.9,20.6z M105.3,14.6c0.3,0,3.1,0,6.3-0.8c-1.1-2-2.3-3.7-2.5-4
	C107.2,10.7,105.8,12.5,105.3,14.6z M110.4,9.4c0.2,0.3,1.4,1.9,2.5,4c2.4-0.9,3.5-2.3,3.6-2.5C115.3,9.8,113,8.9,110.4,9.4z
	 M117.3,11.7c-0.1,0.2-1.3,1.7-3.8,2.7c0.2,0.3,0.4,0.9,0.6,1.4c2.3-0.3,4,0,4.8,0.2C118.9,14.2,118.2,12.8,117.3,11.7z"/>
<path display="none" fill="#242E30" d="M50.8,17.1c-0.6,0-1.1,0.7-1.1,1.6s0.5,1.6,1.1,1.6s1.1-0.7,1.1-1.6
	C51.9,17.8,51.4,17.1,50.8,17.1z M54.7,13.1c0.1-0.3,0.1-2.1-0.6-3.8c0,0-1.6,0.2-4,1.8c-0.5-0.1-1.3-0.2-2.2-0.2s-1.7,0.1-2.2,0.2
	c-2.4-1.6-4-1.8-4-1.8C41,11,41,12.8,41.1,13.1C40.5,13.9,40,15,40,16.4c0,6.2,5.2,6.3,6.5,6.3c0.3,0,0.9,0,1.5,0s1.2,0,1.5,0
	c1.3,0,6.5-0.1,6.5-6.3C56,15,55.5,13.9,54.7,13.1z M48,22L48,22c-3.3,0-5.9-0.4-5.9-3.6c0-0.8,0.3-1.5,0.9-2.1
	c1.1-1,2.9-0.5,4.9-0.5l0,0l0,0c2.1,0,3.9-0.5,4.9,0.5c0.6,0.6,0.9,1.3,0.9,2.1C53.9,21.6,51.3,22,48,22z M45.2,17.1
	c-0.6,0-1.1,0.7-1.1,1.6s0.5,1.6,1.1,1.6s1.1-0.7,1.1-1.6C46.4,17.8,45.9,17.1,45.2,17.1z"/>
<g>
	<path fill="#242E30" stroke="#242E30" stroke-width="0.5" stroke-miterlimit="10" d="M40.2,13.5c-0.2,0-0.3-0.2-0.2-0.3
		c0.4-0.7,1.4-2.9,1.8-4.4c0,0,0.3-0.7,1.3-0.9c0.2,0,0.4,0.2,0.4,0.4c-0.1,0.4-0.3,1-0.5,1.6C42.8,9.9,43,10,43.1,10h4.6
		c0,0,0.1,0,0.1,0c0.1,0,0.5,0.2,0.5,0.8c0,0,0,0.5,0,0.5h-2.8c-0.1,0-0.2,0.1-0.2,0.2v3.6c0,0.1,0.1,0.2,0.2,0.2h2.7
		c0,0,0.4,0,0.4,0.9v0.4h-3.1c-0.1,0-0.2,0.1-0.2,0.2c0,0.4,0.1,1.4-0.2,1.8l0.2-0.3c0.1-0.1,0.4-0.2,0.5-0.2l2,2.4
		c0,0,0.1,0.1,0.1,0.1l0,1.5c0,0.2-0.3,0.3-0.4,0.1l-2.4-2.9h-0.1c0,0-0.4,2.1-2.3,3.7c0,0-0.4,0.5-2.2,0.5c-0.2,0-0.3-0.2-0.1-0.4
		c1-0.9,3.5-3.5,3.5-6.5v-0.2h-3.4c-0.1,0-0.2-0.1-0.2-0.3c0-0.3,0.2-0.9,0.7-1.1c0,0,0.1,0,0.1,0h2.7c0.1,0,0.2-0.1,0.2-0.2v-3.5
		c0-0.1-0.1-0.2-0.2-0.2h-0.9c-0.1,0-0.2,0.1-0.2,0.2c-0.1,0.3-0.3,1.1-0.9,1.5C41.5,13.1,41,13.5,40.2,13.5z"/>
	<path fill="#242E30" stroke="#242E30" stroke-width="0.5" stroke-miterlimit="10" d="M49.2,21.8v-12H56v11.9h-2.8L51,23.4l-0.4-1.6
		L49.2,21.8z M51.4,20.5l0.3,1.2l1.3-1.2h1.6v-9.2h-4v9.3L51.4,20.5z"/>
</g>
<g>
	<path fill="#FFFFFF" stroke="#FFFFFF" stroke-width="0.5" stroke-miterlimit="10" d="M40.2,45.7c-0.2,0-0.3-0.2-0.2-0.3
		c0.4-0.7,1.4-2.9,1.8-4.4c0,0,0.3-0.7,1.3-0.9c0.2,0,0.4,0.2,0.4,0.4c-0.1,0.4-0.3,1-0.5,1.6c-0.1,0.1,0.1,0.3,0.2,0.3h4.6
		c0,0,0.1,0,0.1,0c0.1,0,0.5,0.2,0.5,0.8c0,0,0,0.5,0,0.5h-2.8c-0.1,0-0.2,0.1-0.2,0.2v3.6c0,0.1,0.1,0.2,0.2,0.2h2.7
		c0,0,0.4,0,0.4,0.9V49h-3.1c-0.1,0-0.2,0.1-0.2,0.2c0,0.4,0.1,1.4-0.2,1.8l0.2-0.3c0.1-0.1,0.4-0.2,0.5-0.2l2,2.4
		c0,0,0.1,0.1,0.1,0.1l0,1.5c0,0.2-0.3,0.3-0.4,0.1l-2.4-2.9h-0.1c0,0-0.4,2.1-2.3,3.7c0,0-0.4,0.5-2.2,0.5c-0.2,0-0.3-0.2-0.1-0.4
		c1-0.9,3.5-3.5,3.5-6.5v-0.2h-3.4c-0.1,0-0.2-0.1-0.2-0.3c0-0.3,0.2-0.9,0.7-1.1c0,0,0.1,0,0.1,0h2.7c0.1,0,0.2-0.1,0.2-0.2v-3.5
		c0-0.1-0.1-0.2-0.2-0.2h-0.9c-0.1,0-0.2,0.1-0.2,0.2c-0.1,0.3-0.3,1.1-0.9,1.5C41.5,45.3,41,45.7,40.2,45.7z"/>
	<path fill="#FFFFFF" stroke="#FFFFFF" stroke-width="0.5" stroke-miterlimit="10" d="M49.2,54v-12H56V54h-2.8L51,55.6L50.5,54
		L49.2,54z M51.4,52.7l0.3,1.2l1.3-1.2h1.6v-9.2h-4v9.3L51.4,52.7z"/>
</g>
<path display="none" fill="#FFFFFF" d="M24,43c-0.6,0.3-1.2,0.4-1.9,0.5c0.7-0.4,1.2-1,1.4-1.8c-0.6,0.4-1.3,0.6-2.1,0.8
	c-0.6-0.6-1.5-1-2.4-1c-1.8,0-3.3,1.5-3.3,3.3c0,0.3,0,0.5,0.1,0.7c-2.7-0.1-5.1-1.4-6.8-3.4c-0.3,0.5-0.4,1-0.4,1.7
	c0,1.1,0.6,2.1,1.5,2.7c-0.5,0-1-0.2-1.5-0.4l0,0c0,1.6,1.1,2.9,2.6,3.2c-0.4,0.3-1,0.3-1.5,0c0.4,1.3,1.6,2.3,3.1,2.3
	c-1.1,0.9-2.5,1.4-4.1,1.4c-0.3,0-0.5,0-0.8,0c1.5,0.9,3.2,1.5,5,1.5c6,0,9.3-5,9.3-9.3c0-0.1,0-0.3,0-0.4C23,44.3,23.6,43.7,24,43z
	"/>
<path display="none" fill="#FFFFFF" d="M78,48v8h3v-8h2l1-3h-3c0,0,0-0.5,0-1.3c0-0.3,0.2-0.7,0.7-0.7c1,0,2.9,0,2.3,0v-3
	c0,0-1.6,0-3.3,0C79,40,78,41.3,78,42.8s0,2.3,0,2.3h-2v3L78,48L78,48z"/>
<path display="none" fill="#FFFFFF" d="M112,56c-4.4,0-8-3.6-8-8s3.6-8,8-8s8,3.6,8,8S116.4,56,112,56z M118.7,49.1
	c-0.2-0.1-2.1-0.6-4.3-0.3c0.9,2.5,1.1,3.7,1.3,4.9C117.4,52.6,118.4,51,118.7,49.1z M114.7,54.3c-0.2-1.2-0.5-2.7-1.5-5.2l0,0
	c-3.9,1.3-5.2,4-5.4,4.3C109.4,54.7,112,55.2,114.7,54.3z M106.9,52.6c1.6-3.1,5.8-4.6,5.9-4.6c-0.2-0.4-0.4-0.8-0.6-1.2
	c-3.4,1-6.7,1-7,1C105.1,49.7,105.8,51.4,106.9,52.6z M105.3,46.6c0.3,0,3.1,0,6.3-0.8c-1.1-2-2.3-3.7-2.5-4
	C107.2,42.7,105.8,44.5,105.3,46.6z M110.4,41.4c0.2,0.3,1.4,1.9,2.5,4c2.4-0.9,3.5-2.3,3.6-2.5C115.3,41.8,113,40.9,110.4,41.4z
	 M117.3,43.7c-0.1,0.2-1.3,1.7-3.8,2.7c0.2,0.3,0.4,0.9,0.6,1.4c2.3-0.3,4,0,4.8,0.2C118.9,46.2,118.2,44.8,117.3,43.7z"/>
<path display="none" fill="#FFFFFF" d="M50.8,49.1c-0.6,0-1.1,0.7-1.1,1.6c0,0.9,0.5,1.6,1.1,1.6s1.1-0.7,1.1-1.6
	C51.9,49.8,51.4,49.1,50.8,49.1z M54.7,45.1c0.1-0.3,0.1-2.1-0.6-3.8c0,0-1.6,0.2-4,1.8c-0.5-0.1-1.3-0.2-2.2-0.2s-1.7,0.1-2.2,0.2
	c-2.4-1.6-4-1.8-4-1.8C41,43,41,44.8,41.1,45.1C40.5,45.9,40,47,40,48.4c0,6.2,5.2,6.3,6.5,6.3c0.3,0,0.9,0,1.5,0s1.2,0,1.5,0
	c1.3,0,6.5-0.1,6.5-6.3C56,47,55.5,45.9,54.7,45.1z M48,54L48,54c-3.3,0-5.9-0.4-5.9-3.6c0-0.8,0.3-1.5,0.9-2.1
	c1.1-1,2.9-0.5,4.9-0.5l0,0l0,0c2.1,0,3.9-0.5,4.9,0.5c0.6,0.6,0.9,1.3,0.9,2.1C53.9,53.6,51.3,54,48,54z M45.2,49.1
	c-0.6,0-1.1,0.7-1.1,1.6c0,0.9,0.5,1.6,1.1,1.6s1.1-0.7,1.1-1.6C46.4,49.8,45.9,49.1,45.2,49.1z"/>
<g display="none">
	<path display="inline" fill="#242E30" d="M23.5,10.5h-15c-0.3,0-0.5,0.3-0.5,0.6v10.8c0,0.3,0.2,0.6,0.5,0.6h15
		c0.3,0,0.5-0.3,0.5-0.6V11.1C24,10.7,23.7,10.5,23.5,10.5z M21.8,11.7L16,16.1l-5.9-4.4H21.8z M9,21.3v-9l7,5.2l7-5.2v9H9z"/>
</g>
<g display="none">
	<path display="inline" fill="#567F84" d="M23.5,42h-15C8.2,42,8,42.3,8,42.6v10.8C8,53.7,8.2,54,8.5,54h15c0.3,0,0.5-0.3,0.5-0.6
		V42.6C24,42.3,23.7,42,23.5,42z M21.8,43.2L16,47.6l-5.9-4.4H21.8z M9,52.8v-9l7,5.2l7-5.2v9H9z"/>
</g>
<g>
	<path fill="#242E30" d="M111.9,11.5c0.3,0.5,0.5,1,0.5,1.7c0,0.7-0.2,1.2-0.5,1.6c-0.2,0.2-0.5,0.4-0.8,0.6c0.6,0.2,1,0.5,1.3,1
		c0.3,0.4,0.4,1,0.4,1.6c0,0.7-0.2,1.2-0.5,1.8c-0.2,0.3-0.5,0.6-0.8,0.9c-0.4,0.3-0.8,0.5-1.3,0.6c-0.5,0.1-1,0.2-1.6,0.2h-5V10.3
		h5.4C110.4,10.3,111.3,10.7,111.9,11.5z M105.9,12.2v2.5h2.7c0.5,0,0.9-0.1,1.2-0.3c0.3-0.2,0.5-0.5,0.5-1c0-0.5-0.2-0.9-0.6-1
		c-0.3-0.1-0.8-0.2-1.3-0.2H105.9z M105.9,16.5v3h2.7c0.5,0,0.9-0.1,1.1-0.2c0.5-0.2,0.7-0.7,0.7-1.4c0-0.6-0.2-1-0.7-1.2
		c-0.3-0.1-0.6-0.2-1.1-0.2H105.9z"/>
	<path fill="#242E30" d="M119.5,13.4c0.6,0.3,1,0.7,1.4,1.2c0.3,0.5,0.6,1.1,0.7,1.7c0.1,0.4,0.1,0.9,0.1,1.6h-6
		c0,0.8,0.3,1.4,0.9,1.7c0.3,0.2,0.7,0.3,1.2,0.3c0.5,0,0.9-0.1,1.2-0.4c0.2-0.1,0.3-0.3,0.4-0.6h2.2c-0.1,0.5-0.3,1-0.8,1.5
		c-0.7,0.8-1.8,1.2-3.1,1.2c-1.1,0-2.1-0.3-2.9-1c-0.8-0.7-1.3-1.8-1.3-3.3c0-1.4,0.4-2.5,1.1-3.3c0.8-0.8,1.7-1.1,2.9-1.1
		C118.3,13,118.9,13.1,119.5,13.4z M116.3,15.2c-0.3,0.3-0.5,0.7-0.6,1.3h3.7c0-0.6-0.2-1-0.6-1.3c-0.3-0.3-0.8-0.4-1.3-0.4
		C117,14.8,116.6,14.9,116.3,15.2z"/>
	<rect x="115.1" y="10.8" fill="#242E30" width="4.8" height="1.4"/>
</g>
<g>
	<path fill="#FFFFFF" d="M112.7,43.5c0.3,0.5,0.5,1,0.5,1.7c0,0.7-0.2,1.2-0.5,1.6c-0.2,0.2-0.5,0.4-0.8,0.6c0.6,0.2,1,0.5,1.3,1
		c0.3,0.4,0.4,1,0.4,1.6c0,0.7-0.2,1.2-0.5,1.8c-0.2,0.3-0.5,0.6-0.8,0.9c-0.4,0.3-0.8,0.5-1.3,0.6c-0.5,0.1-1,0.2-1.6,0.2h-5V42.3
		h5.4C111.2,42.4,112.1,42.8,112.7,43.5z M106.6,44.3v2.5h2.7c0.5,0,0.9-0.1,1.2-0.3c0.3-0.2,0.5-0.5,0.5-1c0-0.5-0.2-0.9-0.6-1
		c-0.3-0.1-0.8-0.2-1.3-0.2H106.6z M106.6,48.6v3h2.7c0.5,0,0.9-0.1,1.1-0.2c0.5-0.2,0.7-0.7,0.7-1.4c0-0.6-0.2-1-0.7-1.2
		c-0.3-0.1-0.6-0.2-1.1-0.2H106.6z"/>
	<path fill="#FFFFFF" d="M120.3,45.4c0.6,0.3,1,0.7,1.4,1.2c0.3,0.5,0.6,1.1,0.7,1.7c0.1,0.4,0.1,0.9,0.1,1.6h-6
		c0,0.8,0.3,1.4,0.9,1.7c0.3,0.2,0.7,0.3,1.2,0.3c0.5,0,0.9-0.1,1.2-0.4c0.2-0.1,0.3-0.3,0.4-0.6h2.2c-0.1,0.5-0.3,1-0.8,1.5
		c-0.7,0.8-1.8,1.2-3.1,1.2c-1.1,0-2.1-0.3-2.9-1c-0.8-0.7-1.3-1.8-1.3-3.3c0-1.4,0.4-2.5,1.1-3.3c0.8-0.8,1.7-1.1,2.9-1.1
		C119.1,45,119.7,45.2,120.3,45.4z M117.1,47.3c-0.3,0.3-0.5,0.7-0.6,1.3h3.7c0-0.6-0.2-1-0.6-1.3c-0.3-0.3-0.8-0.4-1.3-0.4
		C117.8,46.8,117.4,47,117.1,47.3z"/>
	<rect x="115.9" y="42.9" fill="#FFFFFF" width="4.8" height="1.4"/>
</g>
<g>
	<path fill="#242E30" d="M19.9,24.4c-1.5,0.6-2.8,0.8-4.6,0.8c-4.2,0-7.8-2.7-7.8-7.2c0-4.7,3.7-8.8,9.4-8.8c4.4,0,7.6,2.8,7.6,6.7
		c0,3.4-2.1,5.5-4.8,5.5c-1.2,0-2-0.6-2.2-1.8h-0.1c-0.8,1.2-1.9,1.8-3.3,1.8c-1.6,0-2.8-1.1-2.8-3c0-2.8,2.3-5.4,5.9-5.4
		c1.1,0,2.4,0.3,3,0.6l-0.8,4.3c-0.2,1.4-0.1,2,0.6,2c1.1,0,2.4-1.2,2.4-3.9c0-3-2.1-5.3-6-5.3c-3.9,0-7.2,2.7-7.2,7.2
		c0,3.9,2.7,6,6.4,6c1.3,0,2.7-0.3,3.7-0.7L19.9,24.4z M17.7,14.9c-0.2,0-0.5-0.1-0.8-0.1c-1.7,0-3,1.5-3,3.3c0,0.9,0.4,1.4,1.3,1.4
		c0.9,0,1.9-1.1,2.1-2.4L17.7,14.9z"/>
</g>
<g>
	<path fill="#FFFFFF" d="M19.9,55.9c-1.5,0.6-2.8,0.8-4.6,0.8c-4.2,0-7.8-2.7-7.8-7.2c0-4.7,3.7-8.8,9.4-8.8c4.4,0,7.6,2.8,7.6,6.7
		c0,3.4-2.1,5.5-4.8,5.5c-1.2,0-2-0.6-2.2-1.8h-0.1c-0.8,1.2-1.9,1.8-3.3,1.8c-1.6,0-2.8-1.1-2.8-3c0-2.8,2.3-5.4,5.9-5.4
		c1.1,0,2.4,0.3,3,0.6l-0.8,4.3c-0.2,1.4-0.1,2,0.6,2c1.1,0,2.4-1.2,2.4-3.9c0-3-2.1-5.3-6-5.3c-3.9,0-7.2,2.7-7.2,7.2
		c0,3.9,2.7,6,6.4,6c1.3,0,2.7-0.3,3.7-0.7L19.9,55.9z M17.7,46.4c-0.2,0-0.5-0.1-0.8-0.1c-1.7,0-3,1.5-3,3.3c0,0.9,0.4,1.4,1.3,1.4
		c0.9,0,1.9-1.1,2.1-2.4L17.7,46.4z"/>
</g>
</svg>
