<?xml version="1.0" encoding="utf-8"?>
<!-- Generator: Adobe Illustrator 18.0.0, SVG Export Plug-In . SVG Version: 6.00 Build 0)  -->
<!DOCTYPE svg PUBLIC "-//W3C//DTD SVG 1.1//EN" "http://www.w3.org/Graphics/SVG/1.1/DTD/svg11.dtd">
<svg version="1.1" id="图层_1" xmlns="http://www.w3.org/2000/svg" xmlns:xlink="http://www.w3.org/1999/xlink" x="0px" y="0px"
	 viewBox="0 0 595.3 841.9" enable-background="new 0 0 595.3 841.9" xml:space="preserve">
<g>
	<path fill="#424242" d="M29.8,344.7c-7.4,0-11.2-7.4-7.4-11.2c13-22.3,48.4-98.6,61.4-150.7c0,0,11.2-24.2,44.6-31.6
		c7.4,0,13,7.4,13,13c-1.9,14.9-9.3,35.3-14.9,55.8c-7.4,0,0,3.7,3.7,3.7h158.1h3.7c3.7,0,16.7,7.4,16.7,27.9v16.7h-96.7
		c-3.7,0-7.4,3.7-7.4,7.4v124.6c0,3.7,3.7,7.4,7.4,7.4h93c0,0,13,0,13,31.6v13H210.2c-3.7,0-7.4,3.7-7.4,7.4c0,13,3.7,48.4-7.4,61.4
		l7.4-11.2c3.7-3.7,13-7.4,16.7-7.4l68.8,83.7l3.7,3.7v52.1c0,7.4-11.2,11.2-13,3.7l-83.7-100.5h-3.7c0,0-13,72.5-80,128.4
		c0,0-13,16.7-76.3,16.7c-7.4,0-11.2-7.4-3.7-13C67,646,152.5,556.7,152.5,452.6v-7.4H39.1c-3.7,0-7.4-3.7-7.4-11.2
		c0-11.2,7.4-31.6,24.2-37.2h3.7h93c3.7,0,7.4-3.7,7.4-7.4V268.4c0-3.7-3.7-7.4-7.4-7.4h-29.8c-3.7,0-7.4,3.7-7.4,7.4
		c-3.7,11.2-11.2,37.2-31.6,52.1C74.4,331.7,55.8,344.7,29.8,344.7z"/>
	<path fill="#424242" d="M340.4,631.2v-413h234.4v411.1h-96.7l-76.3,59.5l-13-55.8h-48.4V631.2z M414.8,586.5l11.2,40.9l44.6-40.9
		h55.8V268.4H388.8v321.8L414.8,586.5z"/>
</g>
</svg>
